<?xml version="1.0" encoding="utf-8"?>
<!-- Generator: Adobe Illustrator 17.0.2, SVG Export Plug-In . SVG Version: 6.00 Build 0)  -->
<!DOCTYPE svg PUBLIC "-//W3C//DTD SVG 1.1//EN" "http://www.w3.org/Graphics/SVG/1.1/DTD/svg11.dtd">
<svg version="1.1" id="Layer_1" xmlns="http://www.w3.org/2000/svg" xmlns:xlink="http://www.w3.org/1999/xlink" x="0px" y="0px"
	 width="44.167px" height="55.167px" viewBox="0 44.833 44.167 55.167" enable-background="new 0 44.833 44.167 55.167"
	 xml:space="preserve">
<path fill="#FFFFFF" d="M8.999,48.001c-2,0.664-3.15,1.462-4.139,2.366l-0.19,0.219c-1.185,1.581-1.067,4.587-0.757,6.441
	C1.667,58.414,0,60.943,0,63.469v28.629c0,3.922,3.979,5.106,5.24,5.496c3.619,1.117,8.917,1.661,16.048,1.661
	c8.29,0,12.766-0.958,15.151-1.473c0.26-0.056,0.798-0.106,1.011-0.15c3.188-0.649,5.55-2.821,5.55-5.534V63.469
	c0-2.531-2.065-4.948-4.04-6.335c0.293-1.555,0.421-4.248-0.635-6.316l-0.18-0.216l-0.204-0.172
	c-2.521-2.582-9.735-4.456-16.84-4.456c-3.53,0-7.102,0.457-10.102,1.251 M9,53.131c0,0.514,0.391,0.82,0.842,0.929
	c1.331,0.94,5.747,1.919,11.708,1.919c7.187,0,12.131-1.421,12.131-2.486c0-1.063-5.148-2.483-12.334-2.483
	c-4.46,0-8.347,0.547-10.347,1.217 M11,50.54c3-0.814,6.243-1.384,10.084-1.384c6.521,0,12.399,1.696,14.262,3.328
	c0.264,0.651,0.38,1.473,0.349,2.274c-0.281,0.602-0.739,1.165-1.329,1.595c-1.571,1.144-4.027,1.38-5.882,1.627
	c-3.16,0.421-6.399,0.507-9.582,0.388c-1.539-0.058-1.53,2.328,0.003,2.386c5.087,0.191,11.344,0.291,16.062-2.021l-0.003,0.014
	l1.079,0.588C37.713,60.146,39,62.04,39,63.469v28.629c0,1.733-1.943,2.289-2.577,2.417c-0.225,0.046-0.407,0.101-0.681,0.158
	c-2.271,0.49-6.464,1.4-14.415,1.4c-6.808,0-11.444-0.496-14.755-1.52C4.063,93.778,4,92.916,4,92.098V63.469
	c0-1.441,0.841-3.362,2.695-4.085l1.146-0.497l-0.372-1.339c-0.451-1.979-0.602-4.292-0.283-4.96C7.645,52.202,8,51.818,9,51.453"/>
<path fill="#FFFFFF" d="M32.957,73.808c-1.723,0.199-6.727,0.729-11.101,0.795c-4.375,0.065-9.137-0.375-11.04-0.795
	C8.913,73.387,7,75.587,7,77.783v10.339c0,2.196,1.355,3.132,3.8,3.976c2.445,0.844,5.876,1.59,11.112,1.59
	c5.235,0,9.216-1.141,11.088-1.59c1.874-0.448,4-1.779,4-3.976V77.783C37,75.587,34.681,73.608,32.957,73.808z"/>
</svg>
